# Blender v2.83.4 OBJ File: 'Hole.blend'
# www.blender.org
mtllib HoleIn.mtl
o Cube
v -45.000008 -0.200000 45.000000
v -25.526495 -0.300000 2.514146
v -25.157148 -0.300000 5.004074
v -24.545519 -0.300000 7.445810
v -23.697515 -0.300000 9.815841
v -22.621281 -0.300000 12.091337
v -21.327196 -0.300000 14.250386
v -19.827717 -0.300000 16.272200
v -18.137289 -0.300000 18.137299
v -16.272181 -0.300000 19.827730
v -14.250367 -0.300000 21.327208
v -12.091311 -0.300000 22.621292
v -9.815818 -0.300000 23.697523
v -7.445786 -0.300000 24.545530
v -5.004049 -0.300000 25.157150
v -2.514122 -0.300000 25.526493
v -38.374966 0.300000 43.844700
v -43.844711 0.300000 38.374958
v -27.435452 0.300000 32.905197
v -32.905212 0.300000 27.435444
v -23.788933 0.300000 36.551701
v -36.551708 0.300000 23.788940
v -19.230843 0.300000 19.230824
v -51.975002 -0.200000 51.975002
v 45.000004 -0.200000 45.000000
v 25.526493 -0.300000 2.514146
v 25.157148 -0.300000 5.004074
v 24.545523 -0.300000 7.445810
v 23.697512 -0.300000 9.815841
v 22.621281 -0.300000 12.091337
v 21.327194 -0.300000 14.250386
v 19.827715 -0.300000 16.272200
v 18.137283 -0.300000 18.137299
v 16.272181 -0.300000 19.827730
v 14.250368 -0.300000 21.327208
v 12.091314 -0.300000 22.621292
v 9.815818 -0.300000 23.697523
v 7.445786 -0.300000 24.545530
v 5.004049 -0.300000 25.157150
v 2.514122 -0.300000 25.526493
v 38.374950 0.300000 43.844700
v 43.844704 0.300000 38.374958
v 27.435453 0.300000 32.905197
v 32.905201 0.300000 27.435444
v 23.788952 0.300000 36.551701
v 36.551708 0.300000 23.788940
v 19.230827 0.300000 19.230824
v 0.000002 -0.300000 25.650002
v 0.000002 -0.300000 45.000000
v 51.975002 -0.200000 51.975002
v -45.000008 -0.200000 -45.000004
v -25.526495 -0.300000 -2.514146
v -25.157148 -0.300000 -5.004075
v -24.545519 -0.300000 -7.445811
v -23.697515 -0.300000 -9.815839
v -22.621281 -0.300000 -12.091336
v -21.327196 -0.300000 -14.250387
v -19.827717 -0.300000 -16.272200
v -18.137289 -0.300000 -18.137300
v -16.272181 -0.300000 -19.827732
v -14.250367 -0.300000 -21.327209
v -12.091311 -0.300000 -22.621294
v -9.815818 -0.300000 -23.697525
v -7.445786 -0.300000 -24.545532
v -5.004049 -0.300000 -25.157154
v -2.514122 -0.300000 -25.526495
v -38.374966 0.300000 -43.844707
v -43.844711 0.300000 -38.374958
v -27.435452 0.300000 -32.905205
v -32.905212 0.300000 -27.435452
v -23.788933 0.300000 -36.551708
v -36.551708 0.300000 -23.788948
v -19.230843 0.300000 -19.230827
v -25.650005 -0.300000 -0.000000
v -45.000008 -0.300000 -0.000001
v -51.975002 -0.200000 -51.975002
v 45.000004 -0.200000 -45.000004
v 25.526493 -0.300000 -2.514146
v 25.157148 -0.300000 -5.004075
v 24.545523 -0.300000 -7.445811
v 23.697512 -0.300000 -9.815839
v 22.621281 -0.300000 -12.091336
v 21.327194 -0.300000 -14.250387
v 19.827715 -0.300000 -16.272200
v 18.137283 -0.300000 -18.137300
v 16.272181 -0.300000 -19.827732
v 14.250368 -0.300000 -21.327209
v 12.091314 -0.300000 -22.621294
v 9.815818 -0.300000 -23.697525
v 7.445786 -0.300000 -24.545532
v 5.004049 -0.300000 -25.157154
v 2.514122 -0.300000 -25.526495
v 38.374950 0.300000 -43.844707
v 43.844704 0.300000 -38.374958
v 27.435453 0.300000 -32.905205
v 32.905201 0.300000 -27.435452
v 23.788952 0.300000 -36.551708
v 36.551708 0.300000 -23.788948
v 19.230827 0.300000 -19.230827
v 0.000002 -0.300000 -25.650005
v 0.000002 -0.300000 -45.000004
v 25.650003 -0.300000 -0.000000
v 45.000004 -0.300000 -0.000001
v 51.975002 -0.200000 -51.975002
vt 0.000000 0.000000
vt 0.000000 0.000000
vt 0.000000 0.000000
vt 0.000000 0.000000
vt 0.000000 0.000000
vt 0.000000 0.000000
vt 0.000000 0.000000
vt 0.000000 0.000000
vt 0.000000 0.000000
vt 0.000000 0.000000
vt 0.000000 0.000000
vt 0.000000 0.000000
vt 0.000000 0.000000
vt 0.000000 0.000000
vt 0.000000 0.000000
vt 0.000000 0.000000
vt 0.000000 0.000000
vt 0.000000 0.000000
vt 0.000000 0.000000
vt 0.000000 0.000000
vt 0.000000 0.000000
vt 0.000000 0.000000
vt 0.000000 0.000000
vt 0.000000 0.000000
vt 0.000000 0.000000
vt 0.000000 0.000000
vt 0.000000 0.000000
vt 0.000000 0.000000
vt 0.000000 0.000000
vt 0.000000 0.000000
vt 0.000000 0.000000
vt 0.000000 0.000000
vt 0.000000 0.000000
vt 0.000000 0.000000
vt 0.000000 0.000000
vt 0.000000 0.000000
vt 0.000000 0.000000
vt 0.000000 0.000000
vt 0.000000 0.000000
vt 0.000000 0.000000
vt 0.000000 0.000000
vt 0.000000 0.000000
vt 0.000000 0.000000
vt 0.000000 0.000000
vt 0.000000 0.000000
vt 0.000000 0.000000
vt 0.000000 0.000000
vt 0.000000 0.000000
vt 0.000000 0.000000
vt 0.000000 0.000000
vt 0.000000 0.000000
vt 0.000000 0.000000
vt 0.000000 0.000000
vt 0.000000 0.000000
vt 0.000000 0.000000
vt 0.000000 0.000000
vt 0.000000 0.000000
vt 0.000000 0.000000
vt 0.000000 0.000000
vt 0.000000 0.000000
vt 0.000000 0.000000
vt 0.000000 0.000000
vt 0.000000 0.000000
vt 0.000000 0.000000
vt 0.000000 0.000000
vt 0.000000 0.000000
vt 0.000000 0.000000
vt 0.000000 0.000000
vt 0.000000 0.000000
vt 0.000000 0.000000
vt 0.000000 0.000000
vt 0.000000 0.000000
vt 0.000000 0.000000
vt 0.000000 0.000000
vt 0.000000 0.000000
vt 0.000000 0.000000
vt 0.000000 0.000000
vt 0.000000 0.000000
vt 0.000000 0.000000
vt 0.000000 0.000000
vt 0.000000 0.000000
vt 0.000000 0.000000
vt 0.000000 0.000000
vt 0.000000 0.000000
vt 0.000000 0.000000
vt 0.000000 0.000000
vt 0.000000 0.000000
vt 0.000000 0.000000
vt 0.000000 0.000000
vt 0.000000 0.000000
vt 0.000000 0.000000
vt 0.000000 0.000000
vt 0.000000 0.000000
vt 0.000000 0.000000
vt 0.000000 0.000000
vt 0.000000 0.000000
vt 0.000000 0.000000
vt 0.000000 0.000000
vt 0.000000 0.000000
vt 0.000000 0.000000
vt 0.000000 0.000000
vt 0.000000 0.000000
vt 0.000000 0.000000
vt 0.000000 0.000000
vn 0.0000 1.0000 -0.0000
vn 0.0000 1.0000 -0.0067
vn 0.0015 1.0000 -0.0015
vn -0.0015 1.0000 -0.0015
vn 0.0015 1.0000 0.0015
vn -0.0015 1.0000 0.0015
g Cube_Cube_Hole
usemtl Hole
s off
f 2/1/1 3/2/1 4/3/1 5/4/1 6/5/1 7/6/1 8/7/1 9/8/1 10/9/1 11/10/1 12/11/1 13/12/1 14/13/1 15/14/1 16/15/1 48/16/1 40/17/1 39/18/1 38/19/1 37/20/1 36/21/1 35/22/1 34/23/1 33/24/1 32/25/1 31/26/1 30/27/1 29/28/1 28/29/1 27/30/1 26/31/1 102/32/1 78/33/1 79/34/1 80/35/1 81/36/1 82/37/1 83/38/1 84/39/1 85/40/1 86/41/1 87/42/1 88/43/1 89/44/1 90/45/1 91/46/1 92/47/1 100/48/1 66/49/1 65/50/1 64/51/1 63/52/1 62/53/1 61/54/1 60/55/1 59/56/1 58/57/1 57/58/1 56/59/1 55/60/1 54/61/1 53/62/1 52/63/1 74/64/1
f 24/65/2 50/66/2 25/67/2 49/68/2 1/69/2
f 50/66/1 104/70/1 77/71/1 25/67/1
f 76/72/1 51/73/1 77/71/1 104/70/1
f 24/65/1 1/69/1 51/73/1 76/72/1
g Cube_Cube_Arrows
usemtl Arrows
f 22/74/1 20/75/1 19/76/1 21/77/1 23/78/1
f 20/75/1 18/79/1 17/80/1 19/76/1
f 46/81/1 47/82/1 45/83/1 43/84/1 44/85/1
f 44/85/1 43/84/1 41/86/1 42/87/1
f 72/88/1 73/89/1 71/90/1 69/91/1 70/92/1
f 70/92/1 69/91/1 67/93/1 68/94/1
f 98/95/1 96/96/1 95/97/1 97/98/1 99/99/1
f 96/96/1 94/100/1 93/101/1 95/97/1
g Cube_Cube_Border
usemtl Border
f 49/68/3 48/16/3 16/15/3 15/14/3 14/13/3 13/12/3 12/11/3 11/10/3 10/9/3 9/8/3 8/7/3 7/6/3 6/5/3 5/4/3 4/3/3 3/2/3 2/1/3 74/64/3 75/102/3 1/69/3
f 49/68/4 25/67/4 103/103/4 102/32/4 26/31/4 27/30/4 28/29/4 29/28/4 30/27/4 31/26/4 32/25/4 33/24/4 34/23/4 35/22/4 36/21/4 37/20/4 38/19/4 39/18/4 40/17/4 48/16/4
f 101/104/5 51/73/5 75/102/5 74/64/5 52/63/5 53/62/5 54/61/5 55/60/5 56/59/5 57/58/5 58/57/5 59/56/5 60/55/5 61/54/5 62/53/5 63/52/5 64/51/5 65/50/5 66/49/5 100/48/5
f 101/104/6 100/48/6 92/47/6 91/46/6 90/45/6 89/44/6 88/43/6 87/42/6 86/41/6 85/40/6 84/39/6 83/38/6 82/37/6 81/36/6 80/35/6 79/34/6 78/33/6 102/32/6 103/103/6 77/71/6
