# Blender v2.83.4 OBJ File: 'Hole.blend'
# www.blender.org
mtllib HoleOut.mtl
o Cube.001
v -45.000008 -0.200000 45.000000
v -25.526497 -0.300000 2.514146
v -25.157152 -0.300000 5.004074
v -24.545527 -0.300000 7.445810
v -23.697515 -0.300000 9.815841
v -22.621286 -0.300000 12.091337
v -21.327200 -0.300000 14.250386
v -19.827723 -0.300000 16.272200
v -18.137289 -0.300000 18.137299
v -16.272186 -0.300000 19.827730
v -14.250373 -0.300000 21.327208
v -12.091319 -0.300000 22.621292
v -9.815823 -0.300000 23.697523
v -7.445791 -0.300000 24.545530
v -5.004054 -0.300000 25.157150
v -2.514126 -0.300000 25.526493
v -24.555429 0.300000 19.085663
v -19.085672 0.300000 24.555410
v -35.494930 0.300000 30.025169
v -30.025181 0.300000 35.494911
v -39.141434 0.300000 26.378662
v -26.378674 0.300000 39.141415
v -43.699551 0.300000 43.699547
v -51.975010 -0.200000 51.975002
v 45.000000 -0.200000 45.000000
v 25.526489 -0.300000 2.514146
v 25.157139 -0.300000 5.004074
v 24.545509 -0.300000 7.445810
v 23.697510 -0.300000 9.815841
v 22.621271 -0.300000 12.091337
v 21.327192 -0.300000 14.250386
v 19.827711 -0.300000 16.272200
v 18.137283 -0.300000 18.137299
v 16.272175 -0.300000 19.827730
v 14.250362 -0.300000 21.327208
v 12.091305 -0.300000 22.621292
v 9.815812 -0.300000 23.697523
v 7.445780 -0.300000 24.545530
v 5.004044 -0.300000 25.157150
v 2.514117 -0.300000 25.526493
v 24.555401 0.300000 19.085655
v 19.085676 0.300000 24.555410
v 35.494911 0.300000 30.025162
v 30.025162 0.300000 35.494911
v 39.141434 0.300000 26.378662
v 26.378668 0.300000 39.141415
v 43.699524 0.300000 43.699539
v -0.000005 -0.300000 25.650002
v -0.000007 -0.300000 45.000000
v 51.974995 -0.200000 51.975002
v -45.000008 -0.200000 -45.000004
v -25.526497 -0.300000 -2.514146
v -25.157152 -0.300000 -5.004075
v -24.545527 -0.300000 -7.445811
v -23.697515 -0.300000 -9.815839
v -22.621286 -0.300000 -12.091336
v -21.327200 -0.300000 -14.250387
v -19.827723 -0.300000 -16.272200
v -18.137289 -0.300000 -18.137300
v -16.272186 -0.300000 -19.827732
v -14.250373 -0.300000 -21.327209
v -12.091319 -0.300000 -22.621294
v -9.815823 -0.300000 -23.697525
v -7.445791 -0.300000 -24.545532
v -5.004054 -0.300000 -25.157154
v -2.514126 -0.300000 -25.526495
v -24.555429 0.300000 -19.085663
v -19.085682 0.300000 -24.555418
v -35.494930 0.300000 -30.025173
v -30.025181 0.300000 -35.494915
v -39.141434 0.300000 -26.378670
v -26.378674 0.300000 -39.141426
v -43.699551 0.300000 -43.699543
v -25.650007 -0.300000 -0.000000
v -45.000008 -0.300000 -0.000001
v -51.975010 -0.200000 -51.975002
v 45.000000 -0.200000 -45.000004
v 25.526489 -0.300000 -2.514146
v 25.157139 -0.300000 -5.004075
v 24.545509 -0.300000 -7.445811
v 23.697510 -0.300000 -9.815839
v 22.621271 -0.300000 -12.091336
v 21.327192 -0.300000 -14.250387
v 19.827711 -0.300000 -16.272200
v 18.137283 -0.300000 -18.137300
v 16.272175 -0.300000 -19.827732
v 14.250362 -0.300000 -21.327209
v 12.091305 -0.300000 -22.621294
v 9.815812 -0.300000 -23.697525
v 7.445780 -0.300000 -24.545532
v 5.004044 -0.300000 -25.157154
v 2.514117 -0.300000 -25.526495
v 24.555405 0.300000 -19.085663
v 19.085648 0.300000 -24.555412
v 35.494915 0.300000 -30.025177
v 30.025166 0.300000 -35.494919
v 39.141434 0.300000 -26.378666
v 26.378672 0.300000 -39.141422
v 43.699528 0.300000 -43.699547
v -0.000005 -0.300000 -25.650005
v -0.000007 -0.300000 -45.000004
v 25.650002 -0.300000 -0.000000
v 45.000000 -0.300000 -0.000001
v 51.974995 -0.200000 -51.975002
vt 0.000000 0.000000
vt 0.000000 0.000000
vt 0.000000 0.000000
vt 0.000000 0.000000
vt 0.000000 0.000000
vt 0.000000 0.000000
vt 0.000000 0.000000
vt 0.000000 0.000000
vt 0.000000 0.000000
vt 0.000000 0.000000
vt 0.000000 0.000000
vt 0.000000 0.000000
vt 0.000000 0.000000
vt 0.000000 0.000000
vt 0.000000 0.000000
vt 0.000000 0.000000
vt 0.000000 0.000000
vt 0.000000 0.000000
vt 0.000000 0.000000
vt 0.000000 0.000000
vt 0.000000 0.000000
vt 0.000000 0.000000
vt 0.000000 0.000000
vt 0.000000 0.000000
vt 0.000000 0.000000
vt 0.000000 0.000000
vt 0.000000 0.000000
vt 0.000000 0.000000
vt 0.000000 0.000000
vt 0.000000 0.000000
vt 0.000000 0.000000
vt 0.000000 0.000000
vt 0.000000 0.000000
vt 0.000000 0.000000
vt 0.000000 0.000000
vt 0.000000 0.000000
vt 0.000000 0.000000
vt 0.000000 0.000000
vt 0.000000 0.000000
vt 0.000000 0.000000
vt 0.000000 0.000000
vt 0.000000 0.000000
vt 0.000000 0.000000
vt 0.000000 0.000000
vt 0.000000 0.000000
vt 0.000000 0.000000
vt 0.000000 0.000000
vt 0.000000 0.000000
vt 0.000000 0.000000
vt 0.000000 0.000000
vt 0.000000 0.000000
vt 0.000000 0.000000
vt 0.000000 0.000000
vt 0.000000 0.000000
vt 0.000000 0.000000
vt 0.000000 0.000000
vt 0.000000 0.000000
vt 0.000000 0.000000
vt 0.000000 0.000000
vt 0.000000 0.000000
vt 0.000000 0.000000
vt 0.000000 0.000000
vt 0.000000 0.000000
vt 0.000000 0.000000
vt 0.000000 0.000000
vt 0.000000 0.000000
vt 0.000000 0.000000
vt 0.000000 0.000000
vt 0.000000 0.000000
vt 0.000000 0.000000
vt 0.000000 0.000000
vt 0.000000 0.000000
vt 0.000000 0.000000
vt 0.000000 0.000000
vt 0.000000 0.000000
vt 0.000000 0.000000
vt 0.000000 0.000000
vt 0.000000 0.000000
vt 0.000000 0.000000
vt 0.000000 0.000000
vt 0.000000 0.000000
vt 0.000000 0.000000
vt 0.000000 0.000000
vt 0.000000 0.000000
vt 0.000000 0.000000
vt 0.000000 0.000000
vt 0.000000 0.000000
vt 0.000000 0.000000
vt 0.000000 0.000000
vt 0.000000 0.000000
vt 0.000000 0.000000
vt 0.000000 0.000000
vt 0.000000 0.000000
vt 0.000000 0.000000
vt 0.000000 0.000000
vt 0.000000 0.000000
vt 0.000000 0.000000
vt 0.000000 0.000000
vt 0.000000 0.000000
vt 0.000000 0.000000
vt 0.000000 0.000000
vt 0.000000 0.000000
vt 0.000000 0.000000
vt 0.000000 0.000000
vn 0.0000 1.0000 -0.0067
vn -0.0067 1.0000 0.0000
vn 0.0000 1.0000 0.0067
vn 0.0067 1.0000 0.0000
vn 0.0000 1.0000 0.0000
vn 0.0015 1.0000 -0.0015
vn -0.0015 1.0000 -0.0015
vn 0.0015 1.0000 0.0015
vn -0.0015 1.0000 0.0015
g Cube.001_Cube.001_Hole
usemtl Hole
s off
f 24/1/1 50/2/1 25/3/1 49/4/1 1/5/1
f 25/3/2 50/2/2 104/6/2 77/7/2 103/8/2
f 51/9/3 101/10/3 77/7/3 104/6/3 76/11/3
f 1/5/4 75/12/4 51/9/4 76/11/4 24/1/4
f 2/13/5 3/14/5 4/15/5 5/16/5 6/17/5 7/18/5 8/19/5 9/20/5 10/21/5 11/22/5 12/23/5 13/24/5 14/25/5 15/26/5 16/27/5 48/28/5 40/29/5 39/30/5 38/31/5 37/32/5 36/33/5 35/34/5 34/35/5 33/36/5 32/37/5 31/38/5 30/39/5 29/40/5 28/41/5 27/42/5 26/43/5 102/44/5 78/45/5 79/46/5 80/47/5 81/48/5 82/49/5 83/50/5 84/51/5 85/52/5 86/53/5 87/54/5 88/55/5 89/56/5 90/57/5 91/58/5 92/59/5 100/60/5 66/61/5 65/62/5 64/63/5 63/64/5 62/65/5 61/66/5 60/67/5 59/68/5 58/69/5 57/70/5 56/71/5 55/72/5 54/73/5 53/74/5 52/75/5 74/76/5
g Cube.001_Cube.001_Arrows
usemtl Arrows
f 22/77/5 20/78/5 19/79/5 21/80/5 23/81/5
f 20/78/5 18/82/5 17/83/5 19/79/5
f 46/84/5 47/85/5 45/86/5 43/87/5 44/88/5
f 44/88/5 43/87/5 41/89/5 42/90/5
f 72/91/5 73/92/5 71/93/5 69/94/5 70/95/5
f 70/95/5 69/94/5 67/96/5 68/97/5
f 98/98/5 96/99/5 95/100/5 97/101/5 99/102/5
f 96/99/5 94/103/5 93/104/5 95/100/5
g Cube.001_Cube.001_Border
usemtl Border
f 49/4/6 48/28/6 16/27/6 15/26/6 14/25/6 13/24/6 12/23/6 11/22/6 10/21/6 9/20/6 8/19/6 7/18/6 6/17/6 5/16/6 4/15/6 3/14/6 2/13/6 74/76/6 75/12/6 1/5/6
f 49/4/7 25/3/7 103/8/7 102/44/7 26/43/7 27/42/7 28/41/7 29/40/7 30/39/7 31/38/7 32/37/7 33/36/7 34/35/7 35/34/7 36/33/7 37/32/7 38/31/7 39/30/7 40/29/7 48/28/7
f 101/10/8 51/9/8 75/12/8 74/76/8 52/75/8 53/74/8 54/73/8 55/72/8 56/71/8 57/70/8 58/69/8 59/68/8 60/67/8 61/66/8 62/65/8 63/64/8 64/63/8 65/62/8 66/61/8 100/60/8
f 101/10/9 100/60/9 92/59/9 91/58/9 90/57/9 89/56/9 88/55/9 87/54/9 86/53/9 85/52/9 84/51/9 83/50/9 82/49/9 81/48/9 80/47/9 79/46/9 78/45/9 102/44/9 103/8/9 77/7/9
