# Blender v2.83.4 OBJ File: 'bridge.blend'
# www.blender.org
mtllib bridge.mtl
o Cube
v 3.801449 0.200000 -6.994071
v 3.801449 -0.200000 -6.994071
v 3.801449 0.200000 -5.721344
v 3.801449 -0.200000 -5.721344
v 3.801449 0.600000 -5.721344
v 3.801449 0.200000 -5.721344
v 3.801449 0.600000 -4.448617
v 3.801449 0.200000 -4.448617
v 3.801449 1.000000 -4.448617
v 3.801449 0.600000 -4.448617
v 3.801449 1.000000 -3.175889
v 3.801449 0.600000 -3.175889
v 3.801449 1.400000 -3.175889
v 3.801449 1.000000 -3.175889
v 4.376384 2.200000 -6.994071
v 3.606514 2.200000 -6.994071
v 3.606514 2.200000 -3.175889
v 3.606514 2.200000 -4.448617
v 3.606514 2.200000 -5.721344
v 4.376384 2.200000 -3.175889
v 4.376384 2.200000 -4.448617
v 4.376384 2.200000 -5.721344
v 4.181449 -0.200000 -6.994071
v -3.798551 0.200000 -6.994071
v -3.798551 -0.200000 -6.994071
v -3.798551 0.200000 -5.721344
v -3.798551 -0.200000 -5.721344
v -3.798551 0.600000 -5.721344
v -3.798551 0.200000 -5.721344
v -3.798551 0.600000 -4.448617
v -3.798551 0.200000 -4.448617
v -3.798551 1.000000 -4.448617
v -3.798551 0.600000 -4.448617
v -3.798551 0.600000 -3.175889
v -3.798551 1.400000 -3.175889
v -3.798551 1.000000 -3.175889
v -4.373485 2.200000 -6.994071
v -3.603616 2.200000 -6.994071
v -3.603616 2.200000 -3.175889
v -3.603616 2.200000 -4.448617
v -3.603616 2.200000 -5.721344
v -4.373485 2.200000 -3.175889
v -4.373485 2.200000 -4.448617
v -4.373485 2.200000 -5.721344
v -4.178551 -0.200000 -6.994071
v 0.001449 1.400000 -3.175889
v 0.001449 0.600000 -4.448617
v 0.001449 1.000000 -3.175889
v 0.001449 0.600000 -3.175889
v 0.001449 1.000000 -4.448617
v 0.001449 0.200000 -5.721344
v 0.001449 0.600000 -4.448617
v 0.001449 0.200000 -4.448617
v 0.001449 0.600000 -5.721344
v 0.001449 0.200000 -5.721344
v 0.001449 -0.200000 -5.721344
v 3.801449 0.200000 7.005929
v 3.801449 -0.200000 7.005929
v 3.801449 0.200000 5.733202
v 3.801449 -0.200000 5.733202
v 3.801449 0.600000 5.733202
v 3.801449 0.200000 5.733202
v 3.801449 0.600000 4.460474
v 3.801449 0.200000 4.460474
v 3.801449 1.000000 4.460474
v 3.801449 0.600000 4.460474
v 3.801449 1.000000 3.187747
v 3.801449 0.600000 3.187747
v 3.801449 1.400000 3.187747
v 3.801449 1.000000 3.187747
v 3.801449 1.400000 0.005929
v 3.801449 1.000000 0.005929
v 4.376384 2.200000 7.005929
v 3.606514 2.200000 7.005929
v 4.376383 2.200000 0.005929
v 3.606514 2.200000 0.005929
v 4.181449 -0.200000 0.005929
v 3.606514 2.200000 3.187747
v 3.606514 2.200000 4.460474
v 3.606514 2.200000 5.733202
v 4.376384 2.200000 3.187747
v 4.376384 2.200000 4.460474
v 4.376384 2.200000 5.733202
v 4.181449 -0.200000 7.005929
v -3.798551 0.200000 7.005929
v -3.798551 -0.200000 7.005929
v -3.798551 0.200000 5.733202
v -3.798551 -0.200000 5.733202
v -3.798551 0.600000 5.733202
v -3.798551 0.200000 5.733202
v -3.798551 0.600000 4.460474
v -3.798551 0.200000 4.460474
v -3.798551 1.000000 4.460474
v -3.798551 0.600000 4.460474
v -3.798551 1.000000 3.187747
v -3.798551 0.600000 3.187747
v -3.798551 1.400000 3.187747
v -3.798551 1.000000 3.187747
v -3.798551 1.400000 0.005929
v -3.798551 1.000000 0.005929
v -4.373485 2.200000 7.005929
v -3.603616 2.200000 7.005929
v -4.373484 2.200000 0.005929
v -3.603616 2.200000 0.005929
v -4.178550 -0.200000 0.005929
v -3.603616 2.200000 3.187747
v -3.603616 2.200000 4.460474
v -3.603616 2.200000 5.733202
v -4.373485 2.200000 3.187747
v -4.373485 2.200000 4.460474
v -4.373485 2.200000 5.733202
v -4.178551 -0.200000 7.005929
v 0.001449 1.000000 3.187747
v 0.001449 1.400000 0.005929
v 0.001449 1.000000 0.005929
v 0.001449 1.400000 3.187747
v 0.001449 0.600000 4.460474
v 0.001449 1.000000 3.187747
v 0.001449 0.600000 3.187747
v 0.001449 1.000000 4.460474
v 0.001449 0.200000 5.733202
v 0.001449 0.600000 4.460474
v 0.001449 0.200000 4.460474
v 0.001449 0.600000 5.733202
v 0.001449 0.200000 5.733202
v 0.001449 -0.200000 5.733202
v 3.801449 0.600000 6.242293
v 3.801449 1.000000 4.969565
v 3.801449 1.400000 3.696837
v -3.798551 0.600000 6.242293
v -3.798551 1.000000 4.969565
v -3.798551 1.400000 3.696837
v 0.001449 1.400000 3.696837
v 0.001449 1.000000 4.969565
v 0.001449 0.600000 6.242293
v 3.801449 0.600000 -6.230434
v 3.801449 1.000000 -4.957707
v 3.801449 1.400000 -3.684980
v -3.798551 0.600000 -6.230434
v -3.798551 1.000000 -4.957707
v -3.798551 1.400000 -3.684980
v 0.001449 1.400000 -3.684980
v 0.001449 1.000000 -4.957707
v 0.001449 0.600000 -6.230434
vt 0.000000 0.000000
vt 0.000000 0.000000
vt 0.000000 0.000000
vt 0.000000 0.000000
vt 0.000000 0.000000
vt 0.000000 0.000000
vt 0.000000 0.000000
vt 0.000000 0.000000
vt 0.000000 0.000000
vt 0.000000 0.000000
vt 0.000000 0.000000
vt 0.000000 0.000000
vt 0.000000 0.000000
vt 0.000000 0.000000
vt 0.000000 0.000000
vt 0.000000 0.000000
vt 0.000000 0.000000
vt 0.000000 0.000000
vt 0.000000 0.000000
vt 0.000000 0.000000
vt 0.000000 0.000000
vt 0.000000 0.000000
vt 0.000000 0.000000
vt 0.000000 0.000000
vt 0.000000 0.000000
vt 0.000000 0.000000
vt 0.000000 0.000000
vt 0.000000 0.000000
vt 0.000000 0.000000
vt 0.000000 0.000000
vt 0.000000 0.000000
vt 0.000000 0.000000
vt 0.000000 0.000000
vt 0.000000 0.000000
vt 0.000000 0.000000
vt 0.000000 0.000000
vt 0.625000 0.375000
vt 0.625000 0.500000
vt 0.625000 0.500000
vt 0.625000 0.375000
vt 0.625000 0.500000
vt 0.625000 0.500000
vt 0.625000 0.375000
vt 0.625000 0.500000
vt 0.625000 0.500000
vt 0.625000 0.375000
vt 0.625000 0.500000
vt 0.625000 0.500000
vt 0.625000 0.375000
vt 0.625000 0.500000
vt 0.625000 0.500000
vt 0.625000 0.375000
vt 0.625000 0.500000
vt 0.625000 0.500000
vt 0.750000 0.500000
vt 0.750000 0.500000
vt 0.625000 0.500000
vt 0.625000 0.500000
vt 0.625000 0.500000
vt 0.625000 0.500000
vt 0.625000 0.500000
vt 0.625000 0.375000
vt 0.625000 0.375000
vt 0.625000 0.500000
vt 0.625000 0.500000
vt 0.625000 0.500000
vt 0.625000 0.500000
vt 0.625000 0.375000
vt 0.625000 0.375000
vt 0.625000 0.500000
vt 0.625000 0.500000
vt 0.625000 0.500000
vt 0.000000 0.000000
vt 0.000000 0.000000
vt 0.000000 0.000000
vt 0.000000 0.000000
vt 0.000000 0.000000
vt 0.000000 0.000000
vt 0.000000 0.000000
vt 0.000000 0.000000
vt 0.000000 0.000000
vt 0.000000 0.000000
vt 0.000000 0.000000
vt 0.000000 0.000000
vt 0.375000 0.750000
vt 0.375000 0.750000
vt 0.375000 0.500000
vt 0.625000 0.500000
vt 0.625000 0.750000
vt 0.375000 0.750000
vt 0.250000 0.500000
vt 0.375000 0.500000
vt 0.375000 0.750000
vt 0.250000 0.750000
vt 0.625000 0.750000
vt 0.375000 0.375000
vt 0.250000 0.500000
vt 0.375000 0.500000
vt 0.375000 0.750000
vt 0.250000 0.750000
vt 0.625000 0.750000
vt 0.375000 0.375000
vt 0.375000 0.500000
vt 0.625000 0.750000
vt 0.375000 0.750000
vt 0.000000 0.000000
vt 0.000000 0.000000
vt 0.000000 0.000000
vt 0.000000 0.000000
vt 0.000000 0.000000
vt 0.000000 0.000000
vt 0.000000 0.000000
vt 0.000000 0.000000
vt 0.750000 0.750000
vt 0.625000 0.875000
vt 0.375000 0.875000
vt 0.750000 0.500000
vt 0.750000 0.750000
vt 0.625000 0.875000
vt 0.375000 0.875000
vt 0.750000 0.500000
vt 0.750000 0.750000
vt 0.625000 0.875000
vt 0.375000 0.875000
vt 0.375000 0.500000
vt 0.375000 0.750000
vt 0.625000 0.750000
vt 0.625000 0.500000
vt 0.375000 0.750000
vt 0.375000 0.500000
vt 0.625000 0.750000
vt 0.375000 0.750000
vt 0.375000 0.500000
vt 0.000000 0.000000
vt 0.000000 0.000000
vt 0.000000 0.000000
vt 0.000000 0.000000
vt 0.000000 0.000000
vt 0.000000 0.000000
vt 0.375000 0.500000
vt 0.375000 0.750000
vt 0.625000 0.750000
vt 0.000000 0.000000
vt 0.000000 0.000000
vt 0.000000 0.000000
vt 0.000000 0.000000
vt 0.000000 0.000000
vt 0.000000 0.000000
vt 0.375000 0.500000
vt 0.625000 0.750000
vt 0.625000 0.500000
vt 0.250000 0.500000
vt 0.250000 0.750000
vt 0.375000 0.750000
vt 0.375000 0.500000
vt 0.625000 0.750000
vt 0.375000 0.375000
vt 0.250000 0.500000
vt 0.250000 0.750000
vt 0.375000 0.750000
vt 0.375000 0.500000
vt 0.625000 0.750000
vt 0.375000 0.375000
vt 0.250000 0.500000
vt 0.250000 0.750000
vt 0.375000 0.500000
vt 0.375000 0.375000
vt 0.000000 0.000000
vt 0.000000 0.000000
vt 0.000000 0.000000
vt 0.000000 0.000000
vt 0.000000 0.000000
vt 0.000000 0.000000
vt 0.000000 0.000000
vt 0.375000 0.875000
vt 0.625000 0.875000
vt 0.750000 0.500000
vt 0.375000 0.875000
vt 0.625000 0.875000
vt 0.750000 0.750000
vt 0.750000 0.500000
vt 0.375000 0.875000
vt 0.625000 0.875000
vt 0.750000 0.750000
vt 0.750000 0.500000
vt 0.375000 0.875000
vt 0.625000 0.875000
vt 0.375000 0.500000
vt 0.625000 0.500000
vt 0.625000 0.750000
vt 0.375000 0.500000
vt 0.375000 0.750000
vt 0.625000 0.750000
vt 0.375000 0.500000
vt 0.375000 0.750000
vt 0.625000 0.750000
vt 0.375000 0.500000
vt 0.000000 0.000000
vt 0.000000 0.000000
vt 0.000000 0.000000
vt 0.000000 0.000000
vt 0.000000 0.000000
vt 0.000000 0.000000
vt 0.000000 0.000000
vn 0.0000 1.0000 -0.0000
vn 0.0000 -1.0000 -0.0000
vn 1.0000 0.0000 0.0000
vn 0.0000 0.0000 -1.0000
vn -0.9716 -0.2367 0.0000
vn -0.9867 -0.1603 0.0252
vn -0.9925 -0.1209 0.0190
vn -0.9952 -0.0970 0.0152
vn 0.9967 -0.0810 0.0000
vn 0.0000 0.0000 1.0000
vn -1.0000 0.0000 0.0000
vn 0.9716 -0.2367 0.0000
vn 0.9867 -0.1603 0.0252
vn 0.9925 -0.1209 0.0190
vn 0.9952 -0.0970 0.0152
vn -0.9967 -0.0810 0.0000
vn -0.9867 -0.1603 -0.0252
vn -0.9925 -0.1209 -0.0190
vn -0.9952 -0.0970 -0.0152
vn 0.9867 -0.1603 -0.0252
vn 0.9925 -0.1209 -0.0190
vn 0.9952 -0.0970 -0.0152
g Cube_Cube_Material
usemtl Material
s off
f 20/1/1 17/2/1 76/3/1 75/4/1
f 20/1/1 21/5/1 18/6/1 17/2/1
f 21/5/1 22/7/1 19/8/1 18/6/1
f 16/9/1 19/8/1 22/7/1 15/10/1
f 42/11/1 103/12/1 104/13/1 39/14/1
f 42/11/1 39/14/1 40/15/1 43/16/1
f 43/16/1 40/15/1 41/17/1 44/18/1
f 38/19/1 37/20/1 44/18/1 41/17/1
f 81/21/1 75/4/1 76/3/1 78/22/1
f 81/21/1 78/22/1 79/23/1 82/24/1
f 82/24/1 79/23/1 80/25/1 83/26/1
f 74/27/1 73/28/1 83/26/1 80/25/1
f 109/29/1 106/30/1 104/13/1 103/12/1
f 109/29/1 110/31/1 107/32/1 106/30/1
f 110/31/1 111/33/1 108/34/1 107/32/1
f 102/35/1 108/34/1 111/33/1 101/36/1
f 116/37/1 97/38/1 132/39/1 133/40/1
f 69/41/1 116/37/1 133/40/1 129/42/1
f 120/43/1 93/44/1 131/45/1 134/46/1
f 65/47/1 120/43/1 134/46/1 128/48/1
f 124/49/1 89/50/1 130/51/1 135/52/1
f 61/53/1 124/49/1 135/52/1 127/54/1
f 46/55/1 142/56/1 141/57/1 35/58/1
f 13/59/1 138/60/1 142/56/1 46/55/1
f 32/61/1 50/62/1 143/63/1 140/64/1
f 50/62/1 9/65/1 137/66/1 143/63/1
f 28/67/1 54/68/1 144/69/1 139/70/1
f 54/68/1 5/71/1 136/72/1 144/69/1
f 27/73/2 4/74/2 2/75/2 23/76/2 77/77/2 105/78/2 45/79/2 25/80/2
f 58/81/1 84/82/1 77/77/1 105/78/1 112/83/1 86/84/1 88/85/1 60/86/1
g Cube_Cube_Material.001
usemtl Material.001
f 2/87/3 1/88/3 3/89/3 4/90/3
f 51/91/2 6/92/2 8/93/2 53/94/2
f 6/92/3 5/71/3 7/95/3 8/93/3
f 51/96/4 54/68/4 5/71/4 6/92/4
f 47/97/2 10/98/2 12/99/2 49/100/2
f 10/98/3 9/65/3 11/101/3 12/99/3
f 47/102/4 50/62/4 9/65/4 10/98/4
f 14/103/3 13/59/3 71/104/3 72/105/3
f 13/106/5 71/107/5 76/3/5 17/2/5
f 17/2/6 18/6/6 9/108/6 14/109/6 13/106/6
f 18/6/7 19/8/7 5/110/7 10/111/7 9/108/7
f 19/8/8 16/9/8 1/112/8 6/113/8 5/110/8
f 77/77/9 23/76/9 15/10/9 22/7/9 21/5/9 20/1/9 75/4/9
f 16/9/4 15/10/4 23/76/4 2/75/4 1/112/4
f 13/59/1 46/55/1 114/114/1 71/104/1
f 12/99/10 11/101/10 48/115/10 49/116/10
f 9/65/1 50/117/1 48/118/1 11/101/1
f 8/93/10 7/95/10 52/119/10 53/120/10
f 5/71/1 54/121/1 52/122/1 7/95/1
f 4/90/10 3/89/10 55/123/10 56/124/10
f 25/125/11 27/126/11 26/127/11 24/128/11
f 51/91/2 53/94/2 31/129/2 29/130/2
f 29/130/11 31/129/11 30/131/11 28/67/11
f 51/96/4 29/130/4 28/67/4 54/68/4
f 47/97/2 49/100/2 34/132/2 33/133/2
f 46/134/4 13/106/4 14/109/4 11/135/4 48/136/4
f 47/102/4 33/133/4 32/61/4 50/62/4
f 50/137/1 32/138/1 36/139/1 48/136/1
f 36/140/11 100/141/11 99/142/11 35/58/11
f 35/143/12 39/14/12 104/13/12 99/144/12
f 39/14/13 35/143/13 36/139/13 32/138/13 40/15/13
f 40/15/14 32/138/14 33/145/14 28/146/14 41/17/14
f 41/17/15 28/146/15 29/147/15 24/148/15 38/19/15
f 105/78/16 103/12/16 42/11/16 43/16/16 44/18/16 37/20/16 45/79/16
f 38/19/4 24/148/4 25/80/4 45/79/4 37/20/4
f 35/58/1 99/142/1 114/114/1 46/55/1
f 48/136/10 36/139/10 34/132/10 49/100/10
f 46/134/4 48/136/4 36/139/4 35/143/4
f 31/129/10 53/120/10 52/119/10 30/131/10
f 28/67/1 30/131/1 52/122/1 54/121/1
f 27/126/10 56/124/10 55/123/10 26/127/10
f 58/149/3 60/86/3 59/150/3 57/151/3
f 121/152/2 123/153/2 64/154/2 62/155/2
f 62/155/3 64/154/3 63/156/3 61/53/3
f 121/157/10 62/155/10 61/53/10 124/49/10
f 117/158/2 119/159/2 68/160/2 66/161/2
f 66/161/3 68/160/3 67/162/3 65/47/3
f 117/163/10 66/161/10 65/47/10 120/43/10
f 113/164/2 115/165/2 72/105/2 70/166/2
f 70/166/3 72/105/3 71/104/3 69/41/3
f 113/167/10 70/166/10 69/41/10 116/37/10
f 69/168/5 78/22/5 76/3/5 71/107/5
f 78/22/17 69/168/17 70/169/17 65/170/17 79/23/17
f 79/23/18 65/170/18 66/171/18 61/172/18 80/25/18
f 80/25/19 61/172/19 62/173/19 57/174/19 74/27/19
f 77/77/9 75/4/9 81/21/9 82/24/9 83/26/9 73/28/9 84/82/9
f 74/27/10 57/174/10 58/81/10 84/82/10 73/28/10
f 72/105/4 115/175/4 114/176/4 71/104/4
f 69/41/1 71/104/1 114/114/1 116/177/1
f 68/160/4 119/178/4 118/179/4 67/162/4
f 65/47/1 67/162/1 118/180/1 120/181/1
f 64/154/4 123/182/4 122/183/4 63/156/4
f 61/53/1 63/156/1 122/184/1 124/185/1
f 60/86/4 126/186/4 125/187/4 59/150/4
f 86/188/11 85/189/11 87/190/11 88/85/11
f 121/152/2 90/191/2 92/192/2 123/153/2
f 90/191/11 89/50/11 91/193/11 92/192/11
f 121/157/10 124/49/10 89/50/10 90/191/10
f 117/158/2 94/194/2 96/195/2 119/159/2
f 94/194/11 93/44/11 95/196/11 96/195/11
f 117/163/10 120/43/10 93/44/10 94/194/10
f 113/164/2 98/197/2 100/141/2 115/165/2
f 98/197/11 97/38/11 99/142/11 100/141/11
f 113/167/10 116/37/10 97/38/10 98/197/10
f 97/198/12 99/144/12 104/13/12 106/30/12
f 106/30/20 107/32/20 93/199/20 98/200/20 97/198/20
f 107/32/21 108/34/21 89/201/21 94/202/21 93/199/21
f 108/34/22 102/35/22 85/203/22 90/204/22 89/201/22
f 105/78/16 112/83/16 101/36/16 111/33/16 110/31/16 109/29/16 103/12/16
f 102/35/10 101/36/10 112/83/10 86/84/10 85/203/10
f 100/141/4 99/142/4 114/176/4 115/175/4
f 97/38/1 116/177/1 114/114/1 99/142/1
f 96/195/4 95/196/4 118/179/4 119/178/4
f 93/44/1 120/181/1 118/180/1 95/196/1
f 92/192/4 91/193/4 122/183/4 123/182/4
f 89/50/1 124/185/1 122/184/1 91/193/1
f 88/85/4 87/190/4 125/187/4 126/186/4
